<?xml version="1.0" encoding="UTF-8"?>
<svg version="1.1" xmlns="http://www.w3.org/2000/svg" width="32" height="32">
<path d="M0 0 C10.56 0 21.12 0 32 0 C32 10.56 32 21.12 32 32 C21.44 32 10.88 32 0 32 C0 21.44 0 10.88 0 0 Z " fill="#010100" transform="translate(0,0)"/>
<path d="M0 0 C8.86025 6.53625 8.86025 6.53625 11 9 C11 9.66 11 10.32 11 11 C5.375 11.25 5.375 11.25 2 9 C1.01 9.495 1.01 9.495 0 10 C0 6.7 0 3.4 0 0 Z " fill="#B4EC3F" transform="translate(10,12)"/>
<path d="M0 0 C1.64574566 -0.02688151 3.29161413 -0.04634123 4.9375 -0.0625 C5.85402344 -0.07410156 6.77054688 -0.08570313 7.71484375 -0.09765625 C10 0 10 0 11 1 C11.04063832 2.66617115 11.042721 4.33388095 11 6 C9.35 6.33 7.7 6.66 6 7 C4.02 4.69 2.04 2.38 0 0 Z " fill="#BDF843" transform="translate(11,9)"/>
<path d="M0 0 C3.3 0 6.6 0 10 0 C10 0.33 10 0.66 10 1 C7.36 1.33 4.72 1.66 2 2 C4.57784846 4.64752004 6.91648098 6.94432065 10 9 C8.3125 9.8125 8.3125 9.8125 6 10 C3.25 7.5625 3.25 7.5625 1 5 C1 8.3 1 11.6 1 15 C0.34 15 -0.32 15 -1 15 C-1.02693575 12.87506859 -1.04636628 10.75004088 -1.0625 8.625 C-1.07410156 7.44164062 -1.08570313 6.25828125 -1.09765625 5.0390625 C-1 2 -1 2 0 0 Z " fill="#475E19" transform="translate(10,8)"/>
</svg>
