<?xml version="1.0" encoding="UTF-8"?>
<svg version="1.1" xmlns="http://www.w3.org/2000/svg" width="32" height="32">
<path d="M0 0 C4.85919771 2.33961371 7.59324451 5.18648901 10 10 C10.59311121 13.32939739 10.8665205 16.62296865 11 20 C10.34 20 9.68 20 9 20 C8.236875 20.94875 7.47375 21.8975 6.6875 22.875 C4.35325176 25.75209667 2.70775687 27.13773096 -1 28 C-7.43195992 28.62244773 -10.75520466 27.8050476 -16 24 C-17.9375 21.25 -17.9375 21.25 -19 19 C-19.66 19.33 -20.32 19.66 -21 20 C-21 16.04 -21 12.08 -21 8 C-20.01 7.67 -19.02 7.34 -18 7 C-17.360625 6.195625 -16.72125 5.39125 -16.0625 4.5625 C-11.75849512 -0.7849 -6.48132707 -0.82042115 0 0 Z " fill="#BF8A18" transform="translate(21,2)"/>
<path d="M0 0 C10.35870768 0.86520098 10.35870768 0.86520098 13.4140625 3.66015625 C15.0390625 6.34765625 15.0390625 6.34765625 14.8515625 8.41015625 C14.5834375 9.04953125 14.3153125 9.68890625 14.0390625 10.34765625 C14.0390625 11.66765625 14.0390625 12.98765625 14.0390625 14.34765625 C13.6640625 16.53515625 13.6640625 16.53515625 13.0390625 18.34765625 C9.33951151 20.19743174 5.07705416 19.81822536 1.0390625 19.34765625 C-2.35582172 17.29658037 -3.76416831 15.64281004 -5.9609375 12.34765625 C-6.50862129 5.44684045 -6.50862129 5.44684045 -4.83984375 2.09765625 C-2.9609375 0.34765625 -2.9609375 0.34765625 0 0 Z " fill="#140E1B" transform="translate(9.9609375,7.65234375)"/>
<path d="M0 0 C3.12578143 1.6720747 5.39281175 3.7856235 7 7 C7.3793347 12.02618483 6.98263247 14.89888036 4 19 C3.01 18.01 2.02 17.02 1 16 C1.350625 15.4225 1.70125 14.845 2.0625 14.25 C3.16953689 12.08596543 3.16953689 12.08596543 2.8125 9.9375 C1.82602552 7.58513777 1.02602623 6.56909265 -1 5 C-3.96243726 4.42052719 -3.96243726 4.42052719 -7.1875 4.3125 C-8.27417969 4.24675781 -9.36085938 4.18101563 -10.48046875 4.11328125 C-11.31191406 4.07589844 -12.14335937 4.03851562 -13 4 C-12.67 3.01 -12.34 2.02 -12 1 C-8.27533151 -0.86233425 -4.05504687 -0.57130829 0 0 Z " fill="#22232C" transform="translate(21,5)"/>
<path d="M0 0 C4.92289989 0.43437352 7.48750825 2.643619 11 6 C12.8908681 9.06047723 13.34369997 11.68686624 13.625 15.25 C13.69976563 16.14203125 13.77453125 17.0340625 13.8515625 17.953125 C13.90054687 18.62859375 13.94953125 19.3040625 14 20 C13.34 20 12.68 20 12 20 C11.236875 20.969375 10.47375 21.93875 9.6875 22.9375 C7.96501638 25.06675089 7.22434317 25.91144349 4.625 26.9375 C1.32759434 27.01600966 -1.75686342 26.57231822 -5 26 C-5 25.67 -5 25.34 -5 25 C-4.31292969 24.89042969 -3.62585937 24.78085937 -2.91796875 24.66796875 C-2.01691406 24.50941406 -1.11585937 24.35085937 -0.1875 24.1875 C0.70582031 24.03667969 1.59914063 23.88585937 2.51953125 23.73046875 C5.23646816 22.93036292 6.29220958 22.22497616 8 20 C9.54616837 15.36149488 9.80341656 11.64335206 7.625 7.1875 C3.81610276 4.01341897 -0.17166953 3.61736286 -5 3 C-5 2.67 -5 2.34 -5 2 C-3.35 1.67 -1.7 1.34 0 1 C0 0.67 0 0.34 0 0 Z " fill="#D34622" transform="translate(18,2)"/>
<path d="M0 0 C1.97909398 -0.02686553 3.95828971 -0.04633375 5.9375 -0.0625 C7.03964844 -0.07410156 8.14179688 -0.08570313 9.27734375 -0.09765625 C12 0 12 0 13 1 C13.04063832 2.66617115 13.042721 4.33388095 13 6 C12.01 6.33 11.02 6.66 10 7 C10 7.66 10 8.32 10 9 C10.99 9.33 11.98 9.66 13 10 C13 10.33 13 10.66 13 11 C10.125 11.125 10.125 11.125 7 11 C6.34 10.34 5.68 9.68 5 9 C5 7.68 5 6.36 5 5 C5.66 4.67 6.32 4.34 7 4 C6.01 4 5.02 4 4 4 C3.34 5.98 2.68 7.96 2 10 C1.34 10 0.68 10 0 10 C0 6.7 0 3.4 0 0 Z " fill="#F0EFEF" transform="translate(8,9)"/>
<path d="M0 0 C1.32 0.99 2.64 1.98 4 3 C3.835 3.5775 3.67 4.155 3.5 4.75 C2.85537969 7.26664369 2.85537969 7.26664369 3 11 C3 11.33 3 11.66 3 12 C0.125 12.1875 0.125 12.1875 -3 12 C-3.66 11.01 -4.32 10.02 -5 9 C-3.68 8.67 -2.36 8.34 -1 8 C-1.66 7.67 -2.32 7.34 -3 7 C-3 6.34 -3 5.68 -3 5 C-2.34 4.67 -1.68 4.34 -1 4 C-0.34786708 1.97536745 -0.34786708 1.97536745 0 0 Z " fill="#B95127" transform="translate(21,11)"/>
<path d="M0 0 C0.721875 0.763125 1.44375 1.52625 2.1875 2.3125 C6.39404559 6.33208801 9.08265177 8.17455771 14.9375 8.4375 C19.67188057 8.30364103 22.30807294 7.06159805 26 4 C26.99 3.34 27.98 2.68 29 2 C27.82631753 5.28631091 26.01454322 7.3875249 23.0390625 9.234375 C18.51506821 10.93303952 13.72130525 10.64764132 9 10 C4.98763627 8.02901431 2.30749747 5.84582912 0 2 C0 1.34 0 0.68 0 0 Z " fill="#2A191C" transform="translate(1,22)"/>
<path d="M0 0 C0.804375 0.78375 1.60875 1.5675 2.4375 2.375 C6.21328801 5.57129057 10.20237016 6.28568622 15 7 C15 7.66 15 8.32 15 9 C8.58520003 9.4501614 5.26793297 8.76280927 0 5 C-0.33 4.01 -0.66 3.02 -1 2 C-0.67 1.34 -0.34 0.68 0 0 Z " fill="#ED891E" transform="translate(5,21)"/>
<path d="M0 0 C0.33 0.66 0.66 1.32 1 2 C-0.19625 2.226875 -1.3925 2.45375 -2.625 2.6875 C-7.16767308 3.7948776 -9.64032749 5.80831111 -13 9 C-13.33 7.68 -13.66 6.36 -14 5 C-8.84290377 0.79289518 -6.71792803 -0.12440607 0 0 Z " fill="#EE801F" transform="translate(18,2)"/>
<path d="M0 0 C0.2954439 5.02254631 -0.01485372 7.89542386 -3 12 C-3.99 11.01 -4.98 10.02 -6 9 C-5.67 8.4225 -5.34 7.845 -5 7.25 C-3.72924102 4.80116138 -3.72924102 4.80116138 -4 1 C-1 0 -1 0 0 0 Z " fill="#0E0F1C" transform="translate(28,12)"/>
<path d="M0 0 C0.33 1.32 0.66 2.64 1 4 C-3.57928118 8.94080338 -3.57928118 8.94080338 -7.625 9.109375 C-10.11407237 8.84066832 -12.5453925 8.4899513 -15 8 C-15 7.67 -15 7.34 -15 7 C-14.33613281 6.91363281 -13.67226562 6.82726562 -12.98828125 6.73828125 C-6.97700641 5.78174263 -3.80408362 4.81850592 0 0 Z " fill="#D74B22" transform="translate(28,20)"/>
<path d="M0 0 C2.0625 0.4375 2.0625 0.4375 4 1 C3.01 1.33 2.02 1.66 1 2 C1.226875 2.928125 1.45375 3.85625 1.6875 4.8125 C2 8 2 8 0.5625 9.875 C0.046875 10.24625 -0.46875 10.6175 -1 11 C-1.99 9.68 -2.98 8.36 -4 7 C-3.34 7 -2.68 7 -2 7 C-1.855625 6.030625 -1.71125 5.06125 -1.5625 4.0625 C-1 1 -1 1 0 0 Z " fill="#BC843A" transform="translate(12,12)"/>
<path d="M0 0 C0.89332031 0.03480469 1.78664063 0.06960937 2.70703125 0.10546875 C3.60808594 0.13253906 4.50914063 0.15960937 5.4375 0.1875 C6.46810547 0.23970703 6.46810547 0.23970703 7.51953125 0.29296875 C7.51953125 1.28296875 7.51953125 2.27296875 7.51953125 3.29296875 C3.22953125 3.29296875 -1.06046875 3.29296875 -5.48046875 3.29296875 C-2.48046875 0.29296875 -2.48046875 0.29296875 0 0 Z " fill="#0B0913" transform="translate(13.48046875,4.70703125)"/>
<path d="M0 0 C0.33 0 0.66 0 1 0 C1 4.62 1 9.24 1 14 C-2 11 -2 11 -2.36328125 9.0625 C-2.34652344 8.381875 -2.32976562 7.70125 -2.3125 7 C-2.30863281 6.319375 -2.30476562 5.63875 -2.30078125 4.9375 C-2 3 -2 3 0 0 Z " fill="#1F171B" transform="translate(6,9)"/>
<path d="M0 0 C0.33 0 0.66 0 1 0 C1.03738281 0.80824219 1.07476562 1.61648438 1.11328125 2.44921875 C1.17902344 3.51785156 1.24476562 4.58648437 1.3125 5.6875 C1.37050781 6.74324219 1.42851562 7.79898437 1.48828125 8.88671875 C2.03782064 12.23009964 3.08674018 14.23526262 5 17 C4.01 17.33 3.02 17.66 2 18 C0 16 0 16 -0.1953125 12.3046875 C-0.182009 10.82799892 -0.15814835 9.35137642 -0.125 7.875 C-0.11146484 6.74384766 -0.11146484 6.74384766 -0.09765625 5.58984375 C-0.0740687 3.72642746 -0.03819719 1.86317407 0 0 Z " fill="#0D0911" transform="translate(7,8)"/>
<path d="M0 0 C0.66 0.66 1.32 1.32 2 2 C0.69675781 1.93039063 0.69675781 1.93039063 -0.6328125 1.859375 C-9.63967161 1.50409861 -9.63967161 1.50409861 -17 6 C-17.99 6.66 -18.98 7.32 -20 8 C-18.82701652 4.71564625 -17.01123551 2.62588015 -14.0546875 0.7578125 C-9.62830487 -0.87473167 -4.62600837 -0.59556395 0 0 Z " fill="#24191B" transform="translate(22,0)"/>
<path d="M0 0 C0.33 3.3 0.66 6.6 1 10 C-0.65 9.67 -2.3 9.34 -4 9 C-3.4140625 2.84765625 -3.4140625 2.84765625 -3 1 C-1 0 -1 0 0 0 Z " fill="#BC2921" transform="translate(31,12)"/>
<path d="M0 0 C-0.56371414 3.26954202 -1.49962266 4.82575883 -4 7 C-4.6875 5.1875 -4.6875 5.1875 -5 3 C-3.38441968 0.84589291 -2.74502455 0 0 0 Z " fill="#E5971B" transform="translate(9,4)"/>
<path d="M0 0 C2.62187494 1.04874998 3.79371361 1.64931313 5.25 4.125 C5.4975 4.74375 5.745 5.3625 6 6 C3.97945196 4.35830472 1.97956942 2.69088222 0 1 C0 0.67 0 0.34 0 0 Z " fill="#240F19" transform="translate(24,2)"/>
<path d="" fill="#160E1B" transform="translate(0,0)"/>
<path d="" fill="#140F1C" transform="translate(0,0)"/>
<path d="" fill="#1C0A1A" transform="translate(0,0)"/>
<path d="" fill="#2E221C" transform="translate(0,0)"/>
</svg>
