<?xml version="1.0" encoding="UTF-8"?>
<svg id="Layer_1" xmlns="http://www.w3.org/2000/svg" version="1.1" xmlns:xlink="http://www.w3.org/1999/xlink" viewBox="0 0 32 32">
  <!-- Generator: Adobe Illustrator 29.4.0, SVG Export Plug-In . SVG Version: 2.1.0 Build 152)  -->
  <defs>
    <style>
      .st0 {
        fill: url(#linear-gradient2);
      }

      .st1 {
        fill: url(#linear-gradient10);
      }

      .st2 {
        fill: #fff;
      }

      .st3 {
        fill: url(#linear-gradient1);
      }

      .st4 {
        fill: url(#linear-gradient9);
      }

      .st5 {
        fill: url(#linear-gradient8);
      }

      .st6 {
        fill: url(#linear-gradient7);
      }

      .st7 {
        fill: url(#linear-gradient4);
      }

      .st8 {
        fill: #0f0f0f;
      }

      .st9 {
        fill: url(#linear-gradient5);
      }

      .st10 {
        fill: url(#linear-gradient3);
      }

      .st11 {
        fill: url(#linear-gradient6);
      }

      .st12 {
        fill: url(#linear-gradient);
      }
    </style>
    <linearGradient id="linear-gradient" x1="7.52" y1="15.07" x2="20.43" y2="3.2" gradientTransform="translate(0 32) scale(1 -1)" gradientUnits="userSpaceOnUse">
      <stop offset="0" stop-color="#fdbb11"/>
      <stop offset=".5" stop-color="#f37721"/>
      <stop offset="1" stop-color="#e72c25"/>
    </linearGradient>
    <linearGradient id="linear-gradient1" x1="10.49" y1="18.3" x2="23.4" y2="6.43" gradientTransform="translate(0 32) scale(1 -1)" gradientUnits="userSpaceOnUse">
      <stop offset="0" stop-color="#fdbb11"/>
      <stop offset=".5" stop-color="#f37721"/>
      <stop offset="1" stop-color="#e72c25"/>
    </linearGradient>
    <linearGradient id="linear-gradient2" x1="10.54" y1="18.35" x2="23.45" y2="6.48" gradientTransform="translate(0 32) scale(1 -1)" gradientUnits="userSpaceOnUse">
      <stop offset="0" stop-color="#fdbb11"/>
      <stop offset=".5" stop-color="#f37721"/>
      <stop offset="1" stop-color="#e72c25"/>
    </linearGradient>
    <linearGradient id="linear-gradient3" x1="14.75" y1="22.93" x2="27.66" y2="11.05" gradientTransform="translate(0 32) scale(1 -1)" gradientUnits="userSpaceOnUse">
      <stop offset="0" stop-color="#fdbb11"/>
      <stop offset=".5" stop-color="#f37721"/>
      <stop offset="1" stop-color="#e72c25"/>
    </linearGradient>
    <linearGradient id="linear-gradient4" x1="7.24" y1="14.77" x2="20.16" y2="2.9" gradientTransform="translate(0 32) scale(1 -1)" gradientUnits="userSpaceOnUse">
      <stop offset="0" stop-color="#fdbb11"/>
      <stop offset=".5" stop-color="#f37721"/>
      <stop offset="1" stop-color="#e72c25"/>
    </linearGradient>
    <linearGradient id="linear-gradient5" x1="11.57" y1="19.47" x2="24.48" y2="7.6" gradientTransform="translate(0 32) scale(1 -1)" gradientUnits="userSpaceOnUse">
      <stop offset="0" stop-color="#fdbb11"/>
      <stop offset=".5" stop-color="#f37721"/>
      <stop offset="1" stop-color="#e72c25"/>
    </linearGradient>
    <linearGradient id="linear-gradient6" x1="14.8" y1="22.98" x2="27.71" y2="11.11" gradientTransform="translate(0 32) scale(1 -1)" gradientUnits="userSpaceOnUse">
      <stop offset="0" stop-color="#fdbb11"/>
      <stop offset=".5" stop-color="#f37721"/>
      <stop offset="1" stop-color="#e72c25"/>
    </linearGradient>
    <linearGradient id="linear-gradient7" x1="9.37" y1="17.09" x2="22.28" y2="5.21" gradientTransform="translate(0 32) scale(1 -1)" gradientUnits="userSpaceOnUse">
      <stop offset="0" stop-color="#fdbb11"/>
      <stop offset=".5" stop-color="#f37721"/>
      <stop offset="1" stop-color="#e72c25"/>
    </linearGradient>
    <linearGradient id="linear-gradient8" x1="14.84" y1="23.03" x2="27.75" y2="11.16" gradientTransform="translate(0 32) scale(1 -1)" gradientUnits="userSpaceOnUse">
      <stop offset="0" stop-color="#fdbb11"/>
      <stop offset=".5" stop-color="#f37721"/>
      <stop offset="1" stop-color="#e72c25"/>
    </linearGradient>
    <linearGradient id="linear-gradient9" x1="10.59" y1="18.4" x2="23.5" y2="6.53" gradientTransform="translate(0 32) scale(1 -1)" gradientUnits="userSpaceOnUse">
      <stop offset="0" stop-color="#fdbb11"/>
      <stop offset=".5" stop-color="#f37721"/>
      <stop offset="1" stop-color="#e72c25"/>
    </linearGradient>
    <linearGradient id="linear-gradient10" x1="0" y1="16" x2="32" y2="16" gradientTransform="translate(0 32) scale(1 -1)" gradientUnits="userSpaceOnUse">
      <stop offset="0" stop-color="#fdbb11"/>
      <stop offset=".5" stop-color="#f37721"/>
      <stop offset="1" stop-color="#e72c25"/>
    </linearGradient>
  </defs>
  <rect class="st8" width="32" height="32"/>
  <g>
    <path class="st12" d="M12.07,17.87h0c-.36-.43-.55-.96-.56-1.5l-.66,1.45h0l-.43.94-.75,1.64v2.72l.75-1.64.43-.94h0l1.22-2.68h0Z"/>
    <polygon class="st3" points="23.7 23.56 18.36 23.56 19.11 24.31 24.88 24.31 24.14 23.56 23.7 23.56"/>
    <polygon class="st0" points="23.7 23.13 22.96 22.38 22.96 22.38 22.53 22.38 17.18 22.38 17.18 22.38 17.93 23.13 17.93 23.13 23.7 23.13 23.7 23.13"/>
    <path class="st10" d="M24.91,13.93c-.03-.07-.06-.13-.09-.2-.09-.19-.2-.38-.32-.56-.04-.06-.08-.12-.12-.17-.04-.06-.09-.11-.13-.17-.01-.01-.02-.02-.03-.04.19.53.29,1.09.29,1.67,0,1.27-.51,2.47-1.41,3.37-.74.74-1.68,1.21-2.7,1.36l.79.79c.16-.01.31-.03.46-.06.14-.03.29-.06.42-.1.03,0,.07-.02.1-.03.1-.03.2-.07.3-.11.2-.08.39-.17.58-.28.34-.19.65-.43.92-.7l.07-.07c.22-.23.41-.48.57-.75.05-.09.11-.18.15-.28.05-.09.09-.19.13-.29.01-.03.03-.07.04-.1.03-.07.05-.13.07-.2s.04-.14.06-.2c.03-.1.06-.21.08-.31.04-.18.06-.36.08-.54,0-.11.01-.22.01-.33,0-.61-.12-1.19-.34-1.72l.02.02Z"/>
    <polygon class="st7" points="10.85 21.58 10.85 24.31 13.25 19.06 12.39 18.21 10.85 21.58"/>
    <polygon class="st9" points="13.62 13.23 12.95 13.23 12.39 14.46 13.62 13.23"/>
    <path class="st11" d="M23.12,11.87c.14.46.21.94.21,1.43,0,1.27-.51,2.47-1.41,3.37-.74.74-1.68,1.21-2.7,1.36l.79.79c.19-.01.38-.04.57-.08.04,0,.07-.02.11-.02.08-.02.16-.04.24-.06.06-.02.12-.04.18-.05.03-.01.07-.02.1-.04.04-.02.09-.03.13-.05.05-.02.09-.04.14-.06.04-.02.08-.04.13-.06.03-.02.06-.03.1-.05.25-.13.49-.28.71-.46.03-.02.06-.04.08-.07.11-.09.21-.18.31-.28.07-.07.15-.15.21-.23.09-.11.18-.21.26-.33.08-.11.16-.23.23-.35.05-.09.1-.18.15-.28.02-.03.03-.06.05-.1.04-.1.08-.19.12-.29.02-.07.05-.13.07-.2s.04-.14.06-.21c0-.03.02-.07.03-.1.04-.18.07-.35.09-.54.02-.15.02-.29.03-.44,0-.92-.27-1.77-.76-2.48-.09-.13-.18-.25-.28-.37.03.08.06.16.08.24h-.03Z"/>
    <polygon class="st6" points="10.42 17.74 10.85 16.8 10.85 16.8 12.68 12.8 14.05 12.8 14.8 12.05 11.77 12.05 10.85 14.07 10.85 14.08 10.42 15.01 9.67 16.65 9.24 17.59 8.49 19.23 8.49 21.95 9.24 20.31 9.67 19.37 10.42 17.74"/>
    <path class="st5" d="M22.01,10.94c.04.16.07.31.09.47.03.23.05.47.05.71,0,1.27-.51,2.47-1.41,3.37-.74.74-1.68,1.21-2.7,1.36l.79.79h0c.15-.01.29-.03.43-.05.05,0,.09-.02.14-.03.07-.01.14-.03.21-.05.07-.02.14-.04.21-.06.14-.04.27-.09.4-.15.03-.01.07-.03.1-.04.1-.04.19-.09.29-.14.03-.02.06-.03.09-.05.09-.05.18-.11.27-.17.03-.02.06-.04.09-.06.06-.04.11-.08.17-.13.1-.08.2-.17.3-.26l.09-.09.07-.07c.22-.23.41-.48.57-.75.04-.06.07-.12.11-.18.34-.62.53-1.32.54-2.07,0-.61-.12-1.19-.34-1.72h0c-.03-.07-.06-.13-.09-.2-.06-.13-.13-.25-.2-.37-.04-.06-.08-.13-.12-.19h0c-.04-.06-.08-.11-.12-.17s-.09-.11-.13-.17c-.01-.01-.02-.02-.03-.04.03.08.06.16.08.24.03.08.05.17.07.25l-.02.02Z"/>
    <polygon class="st4" points="21.78 21.2 21.35 21.2 16.01 21.2 16 21.2 16 21.2 16.75 21.95 16.75 21.95 16.75 21.95 22.53 21.95 21.78 21.2"/>
    <path class="st2" d="M17.55,16.98l-.3-.3-.2-.2h.39c.23,0,.46-.03.68-.07.03,0,.05,0,.08-.01h.04c.06-.01.13-.03.19-.04.07-.02.14-.04.21-.06.13-.04.25-.09.37-.14.04-.02.08-.04.13-.05.08-.04.16-.08.24-.12.05-.03.1-.05.14-.08.03-.02.06-.04.09-.05.18-.11.35-.23.52-.37.11-.09.21-.18.31-.28.07-.07.15-.15.21-.23.09-.11.18-.21.26-.33.04-.06.08-.11.12-.17s.07-.12.11-.18c.02-.03.03-.06.05-.09.13-.25.25-.51.33-.78.02-.07.04-.14.06-.21,0-.03.02-.07.03-.1.02-.07.03-.14.04-.21.05-.25.07-.51.07-.77,0-.28-.02-.55-.07-.82h0c-.03-.15-.07-.31-.11-.45-.05-.15-.1-.3-.16-.45-.08-.2-.18-.38-.29-.57-.04-.07-.08-.13-.12-.19-.08-.12-.16-.23-.25-.33-.05-.05-.09-.11-.14-.16-.12-.13-.25-.26-.38-.37-.01-.01-.03-.02-.04-.04-.04-.03-.08-.07-.12-.1-.03-.02-.06-.04-.08-.06-.06-.04-.12-.08-.17-.12-.06-.04-.12-.08-.18-.12-.12-.07-.25-.14-.38-.2-.06-.03-.13-.06-.2-.09-.07-.03-.13-.05-.2-.08-.03-.01-.07-.02-.1-.04l-.21-.06c-.07-.02-.14-.04-.21-.05-.04,0-.07-.02-.11-.02-.18-.04-.36-.06-.55-.08-.11,0-.23-.01-.34-.01H7.31v13.08l.75-1.64.43-.94.75-1.64.43-.94.75-1.64.43-.94h0l.65-1.42h4.33l-1.18,1.18-.41.41-.02.02-1.71,1.71-.07.07s-.07.08-.1.12c-.02.02-.03.04-.05.07-.03.04-.06.09-.08.13-.04.07-.08.14-.11.21-.05.1-.08.21-.11.32-.02.06-.03.13-.04.2-.02.15-.02.31-.01.46,0,.06.01.13.03.19.04.19.1.37.19.54.03.06.07.13.11.19.07.1.15.2.24.29l.07.07.15.15.71.71h0l.32.32.15.15.64.64.54.54.48.48h5.78l-3.8-3.8v-.04Z"/>
  </g>
  <path class="st1" d="M16,32c-4.27,0-8.29-1.66-11.31-4.69C1.66,24.29,0,20.27,0,16S1.66,7.71,4.69,4.69C7.71,1.66,11.73,0,16,0s8.29,1.66,11.31,4.69c3.02,3.02,4.69,7.04,4.69,11.31s-1.66,8.29-4.69,11.31c-3.02,3.02-7.04,4.69-11.31,4.69ZM16,2.1c-3.71,0-7.2,1.45-9.83,4.07-2.62,2.62-4.07,6.11-4.07,9.83s1.45,7.2,4.07,9.83c2.62,2.62,6.12,4.07,9.83,4.07s7.2-1.45,9.83-4.07c2.62-2.62,4.07-6.12,4.07-9.83s-1.45-7.2-4.07-9.83c-2.62-2.62-6.12-4.07-9.83-4.07Z"/>
</svg>